<?xml version="1.0" standalone="no"?>
<!DOCTYPE svg PUBLIC "-//W3C//DTD SVG 20010904//EN"
 "http://www.w3.org/TR/2001/REC-SVG-20010904/DTD/svg10.dtd">
<svg version="1.0" xmlns="http://www.w3.org/2000/svg"
 width="500.000000pt" height="500.000000pt" viewBox="0 0 500.000000 500.000000"
 preserveAspectRatio="xMidYMid meet">
<metadata>
Created by potrace 1.14, written by Peter Selinger 2001-2017
</metadata>
<g transform="translate(0.000000,500.000000) scale(0.100000,-0.100000)"
fill="#000000" stroke="none">
<path d="M3610 3399 c-241 -28 -487 -102 -670 -201 -335 -182 -548 -432 -641
-749 -30 -105 -38 -339 -15 -475 16 -93 78 -300 95 -317 18 -18 482 438 715
703 140 160 322 384 430 530 43 58 81 107 84 110 3 3 -18 -40 -47 -94 -107
-203 -285 -462 -460 -671 -143 -171 -460 -475 -606 -582 -17 -12 -27 -24 -23
-28 3 -4 66 -9 140 -12 383 -16 723 116 971 377 101 106 170 205 237 338 136
274 199 606 171 913 -7 78 -15 147 -18 155 -4 11 -33 14 -147 13 -77 -1 -175
-5 -216 -10z"/>
<path d="M1016 2914 c-14 -58 -19 -359 -7 -447 34 -256 131 -473 286 -636 201
-213 471 -291 779 -226 39 8 74 19 78 23 11 11 -169 252 -336 452 -66 80 -213
239 -326 354 -208 213 -210 224 -15 68 250 -199 496 -474 662 -740 52 -84 55
-82 72 25 23 152 12 320 -31 453 -44 137 -110 245 -218 357 -204 210 -476 325
-801 340 l-136 6 -7 -29z"/>
</g>
</svg>
