<?xml version="1.0" encoding="UTF-8"?>
<svg version="1.1" xmlns="http://www.w3.org/2000/svg" width="640" height="320">
<path d="M0 0 C211.2 0 422.4 0 640 0 C640 105.6 640 211.2 640 320 C428.8 320 217.6 320 0 320 C0 214.4 0 108.8 0 0 Z " fill="#C8102E" transform="translate(0,0)"/>
<path d="M0 0 C95.04 0 190.08 0 288 0 C288 42.24 288 84.48 288 128 C192.96 128 97.92 128 0 128 C0 85.76 0 43.52 0 0 Z " fill="#FDFDFD" transform="translate(352,192)"/>
<path d="M0 0 C95.04 0 190.08 0 288 0 C288 42.24 288 84.48 288 128 C192.96 128 97.92 128 0 128 C0 85.76 0 43.52 0 0 Z " fill="#FDFDFD" transform="translate(0,192)"/>
<path d="M0 0 C95.04 0 190.08 0 288 0 C288 42.24 288 84.48 288 128 C192.96 128 97.92 128 0 128 C0 85.76 0 43.52 0 0 Z " fill="#FDFDFD" transform="translate(352,0)"/>
<path d="M0 0 C95.04 0 190.08 0 288 0 C288 42.24 288 84.48 288 128 C192.96 128 97.92 128 0 128 C0 85.76 0 43.52 0 0 Z " fill="#FDFDFD" transform="translate(0,0)"/>
<path d="M0 0 C0 32.01 0 64.02 0 97 C-64.02 97 -128.04 97 -194 97 C-190.97819056 94.73364292 -188.51265356 93.13590119 -185.1940918 91.49145508 C-184.2417717 91.01698441 -183.2894516 90.54251373 -182.30827332 90.05366516 C-181.28228531 89.54740097 -180.2562973 89.04113678 -179.19921875 88.51953125 C-178.1306514 87.98784836 -177.06208405 87.45616547 -175.96113586 86.90837097 C-172.53846811 85.20593679 -169.11318884 83.50884581 -165.6875 81.8125 C-161.21086825 79.59259528 -156.73559522 77.36998357 -152.26171875 75.14453125 C-150.62854202 74.33267868 -150.62854202 74.33267868 -148.96237183 73.50442505 C-143.37036448 70.71518579 -137.82218368 67.87070053 -132.33203125 64.88671875 C-126.49258362 61.72387984 -120.54781095 58.84627473 -114.54492188 56.0078125 C-103.3278573 50.67176141 -92.20712471 45.15711023 -81.10974693 39.57717323 C-77.85303755 37.93992809 -74.59478505 36.30578967 -71.33613586 34.67240906 C-62.09262467 30.03857755 -52.85156683 25.39986814 -43.61206055 20.75805664 C-37.91384281 17.8956063 -32.21371357 15.03699382 -26.51236916 12.1807766 C-24.3501649 11.09656808 -22.18872109 10.01084167 -20.02805138 8.92357826 C-17.03440671 7.41721375 -14.03837886 5.91569634 -11.04174805 4.4152832 C-10.14999878 3.96502777 -9.25824951 3.51477234 -8.33947754 3.0508728 C-7.52855148 2.64606186 -6.71762543 2.24125092 -5.88212585 1.82417297 C-4.82354889 1.29252769 -4.82354889 1.29252769 -3.74358654 0.7501421 C-2 0 -2 0 0 0 Z " fill="#022169" transform="translate(267,223)"/>
<path d="M0 0 C64.02 0 128.04 0 194 0 C194 32.01 194 64.02 194 97 C189.99484086 95.66494695 186.68259308 94.46519688 182.98905945 92.61141968 C182.02933731 92.13221069 181.06961517 91.65300171 180.08081055 91.15927124 C179.0444043 90.63668732 178.00799805 90.11410339 176.94018555 89.57568359 C175.83520218 89.02253479 174.73021881 88.46938599 173.5917511 87.8994751 C171.19441093 86.69867553 168.79785131 85.49645188 166.40250206 84.29169846 C162.59784058 82.3781671 158.79030272 80.47040849 154.9823761 78.56338501 C148.94163146 75.53732606 142.90276505 72.5075405 136.86471635 69.47610629 C126.09974287 64.0715152 115.33263398 58.67118607 104.5633052 53.27527869 C100.79637004 51.38766321 97.03059722 49.49775462 93.26571232 47.60605347 C76.9283256 39.38722113 76.9283256 39.38722113 60.40776348 31.54593468 C55.74587575 29.39532902 51.21141065 27.04792815 46.6875 24.625 C36.81770114 19.36396301 26.82018169 14.36708602 16.8125 9.375 C15.98358246 8.96147278 15.15466492 8.54794556 14.30062866 8.12188721 C9.5350924 5.74522805 4.76812346 3.37146405 0 1 C0 0.67 0 0.34 0 0 Z " fill="#022169" transform="translate(73,0)"/>
<path d="M0 0 C6.75 2.25 6.75 2.25 9.67435265 3.71412849 C10.3411773 4.04554978 11.00800196 4.37697106 11.69503343 4.71843541 C12.40905466 5.07835886 13.12307589 5.43828232 13.85873413 5.80911255 C14.63156852 6.19467532 15.40440292 6.58023809 16.20065653 6.97748458 C18.78200759 8.26651694 21.36046322 9.56123545 23.93896484 10.85595703 C25.79187118 11.78269235 27.64495387 12.70907514 29.49819946 13.63513184 C34.52427487 16.14788265 39.5478685 18.66555881 44.571033 21.18412256 C49.82266759 23.81619131 55.07656819 26.44372891 60.33023071 29.07174683 C70.27644128 34.04796013 80.22060551 39.02824853 90.16404212 44.01000202 C101.4852403 49.68177865 112.80871056 55.34901197 124.13237453 61.01586366 C147.42411577 72.67218669 170.71299604 84.33421605 194 96 C194 96.33 194 96.66 194 97 C129.98 97 65.96 97 0 97 C0 64.99 0 32.98 0 0 Z " fill="#022169" transform="translate(373,223)"/>
<path d="M0 0 C64.02 0 128.04 0 194 0 C190.2666331 2.80002518 186.54438962 4.867671 182.39523315 6.92936707 C181.24066154 7.50899286 181.24066154 7.50899286 180.06276524 8.10032827 C177.48367648 9.39386062 174.90176655 10.6816565 172.31982422 11.96948242 C170.47011981 12.89568961 168.62058578 13.82223711 166.77120972 14.74909973 C161.74855014 17.26499139 156.72337024 19.77580958 151.69761801 22.2855165 C146.44427945 24.90965683 141.19289132 27.53769518 135.94119263 30.16511536 C127.12417959 34.57544155 118.30548425 38.98238974 109.48583984 43.38745117 C99.27687653 48.48648588 89.07081315 53.59128851 78.86622989 58.69908255 C70.11352021 63.07996864 61.35926209 67.45774822 52.60369122 71.83291322 C47.3703065 74.44804348 42.13747417 77.06426349 36.90603256 79.68327904 C31.99132418 82.14351226 27.07469009 84.5998527 22.15651321 87.05314445 C20.34736164 87.95639302 18.53889682 88.86101853 16.7311554 89.76708603 C14.27286017 90.99894649 11.81217998 92.22590247 9.35079956 93.45158386 C8.62785544 93.81528664 7.90491132 94.17898942 7.16005981 94.5537135 C2.22830063 97 2.22830063 97 0 97 C0 64.99 0 32.98 0 0 Z " fill="#022169" transform="translate(373,0)"/>
<path d="M0 0 C-3.70410941 3.04598403 -7.81764682 5.11603391 -12.05450439 7.30900574 C-13.28289854 7.94988482 -13.28289854 7.94988482 -14.53610873 8.60371095 C-17.28407781 10.03558103 -20.03498324 11.46170256 -22.78613281 12.88745117 C-24.75810756 13.91245236 -26.73005096 14.93751388 -28.70196533 15.96263123 C-46.82347605 25.37113329 -65.00406408 34.66460467 -83.20103836 43.92614269 C-85.64494089 45.1703928 -88.08866103 46.41500031 -90.53222656 47.65991211 C-91.13942153 47.96923954 -91.74661649 48.27856697 -92.37221131 48.59726796 C-102.12039714 53.56591537 -111.83106662 58.60375823 -121.52873269 63.67016896 C-131.54496294 68.90106233 -141.59858816 74.05297471 -151.68757892 79.14258367 C-157.32740253 81.99052687 -162.94656614 84.86745115 -168.52646637 87.83131981 C-199.71032766 104.35638745 -224.67155504 110.51469481 -260 107 C-256.29589059 103.95401597 -252.18235318 101.88396609 -247.94549561 99.69099426 C-247.12656617 99.26374154 -246.30763674 98.83648882 -245.46389127 98.39628905 C-242.71592219 96.96441897 -239.96501676 95.53829744 -237.21386719 94.11254883 C-235.24189244 93.08754764 -233.26994904 92.06248612 -231.29803467 91.03736877 C-213.17652395 81.62886671 -194.99593592 72.33539533 -176.79896164 63.07385731 C-174.35505911 61.8296072 -171.91133897 60.58499969 -169.46777344 59.34008789 C-168.86057847 59.03076046 -168.25338351 58.72143303 -167.62778869 58.40273204 C-157.87960286 53.43408463 -148.16893338 48.39624177 -138.47126731 43.32983104 C-128.45503706 38.09893767 -118.40141184 32.94702529 -108.31242108 27.85741633 C-102.67259747 25.00947313 -97.05343386 22.13254885 -91.47353363 19.16868019 C-60.28967234 2.64361255 -35.32844496 -3.51469481 0 0 Z " fill="#C81331" transform="translate(261,213)"/>
<path d="M0 0 C-3.70410941 3.04598403 -7.81764682 5.11603391 -12.05450439 7.30900574 C-13.28289854 7.94988482 -13.28289854 7.94988482 -14.53610873 8.60371095 C-17.28407781 10.03558103 -20.03498324 11.46170256 -22.78613281 12.88745117 C-24.75810756 13.91245236 -26.73005096 14.93751388 -28.70196533 15.96263123 C-46.82347605 25.37113329 -65.00406408 34.66460467 -83.20103836 43.92614269 C-85.64494089 45.1703928 -88.08866103 46.41500031 -90.53222656 47.65991211 C-91.13942153 47.96923954 -91.74661649 48.27856697 -92.37221131 48.59726796 C-102.12039714 53.56591537 -111.83106662 58.60375823 -121.52873269 63.67016896 C-131.54496294 68.90106233 -141.59858816 74.05297471 -151.68757892 79.14258367 C-157.32740253 81.99052687 -162.94656614 84.86745115 -168.52646637 87.83131981 C-199.71032766 104.35638745 -224.67155504 110.51469481 -260 107 C-256.29589059 103.95401597 -252.18235318 101.88396609 -247.94549561 99.69099426 C-247.12656617 99.26374154 -246.30763674 98.83648882 -245.46389127 98.39628905 C-242.71592219 96.96441897 -239.96501676 95.53829744 -237.21386719 94.11254883 C-235.24189244 93.08754764 -233.26994904 92.06248612 -231.29803467 91.03736877 C-213.17652395 81.62886671 -194.99593592 72.33539533 -176.79896164 63.07385731 C-174.35505911 61.8296072 -171.91133897 60.58499969 -169.46777344 59.34008789 C-168.86057847 59.03076046 -168.25338351 58.72143303 -167.62778869 58.40273204 C-157.87960286 53.43408463 -148.16893338 48.39624177 -138.47126731 43.32983104 C-128.45503706 38.09893767 -118.40141184 32.94702529 -108.31242108 27.85741633 C-102.67259747 25.00947313 -97.05343386 22.13254885 -91.47353363 19.16868019 C-60.28967234 2.64361255 -35.32844496 -3.51469481 0 0 Z " fill="#C81431" transform="translate(639,0)"/>
<path d="M0 0 C21.81965821 10.33562757 21.81965821 10.33562757 31.90966797 15.40600586 C33.66793895 16.2862619 35.42620999 17.16651785 37.18448281 18.04677022 C39.02643356 18.96940351 40.86787712 19.89304138 42.70916367 20.81699944 C46.57547956 22.75704823 50.44341276 24.69385799 54.31155396 26.63026428 C62.50057876 30.73026369 70.68787206 34.83371448 78.875 38.9375 C87.76794028 43.39502529 96.66120236 47.85190269 105.55640519 52.30491167 C109.39868056 54.22853062 113.23997477 56.15409055 117.08051085 58.0811795 C120.0201686 59.55561668 122.96111867 61.02747232 125.90185547 62.49975586 C126.95741638 63.03011948 128.01297729 63.56048309 129.1005249 64.10691833 C130.07281036 64.59309631 131.04509583 65.07927429 132.04684448 65.58018494 C132.88773054 66.00173827 133.7286166 66.42329161 134.59498405 66.85761929 C137.02812877 68.01336115 139.48884893 69.02696244 142 70 C142 70.33 142 70.66 142 71 C95.14 71 48.28 71 0 71 C0 47.57 0 24.14 0 0 Z " fill="#03236A" transform="translate(0,36)"/>
<path d="M0 0 C46.53 0 93.06 0 141 0 C141 23.43 141 46.86 141 71 C119.1725221 60.66066837 119.1725221 60.66066837 109.07446289 55.59399414 C107.92719223 55.02043182 106.77992157 54.44686951 105.59788513 53.85592651 C102.52356251 52.31890556 99.45045806 50.77946467 96.37760854 49.23950124 C93.13451131 47.614771 89.89023806 45.99239221 86.64610291 44.36973572 C80.53081266 41.31055157 74.41654225 38.24933508 68.30265945 35.18733925 C61.34502947 31.70289883 54.3862385 28.22078002 47.42735684 24.73884022 C33.71105022 17.87570384 19.99603412 11.00999338 6.28196812 4.14238071 C4.1883046 3.09426755 2.09428003 2.04688065 0 1 C0 0.67 0 0.34 0 0 Z " fill="#03236A" transform="translate(499,213)"/>
<path d="M0 0 C46.53 0 93.06 0 141 0 C139.68904385 2.6219123 138.48481083 2.89241588 135.84091187 4.11775208 C134.9493873 4.53624011 134.05786274 4.95472815 133.13932228 5.38589764 C131.66536019 6.06850013 131.66536019 6.06850013 130.16162109 6.76489258 C121.30699491 10.93244745 112.50710091 15.19139476 103.75634766 19.57299805 C102.61049887 20.14645368 101.46465008 20.71990931 100.2840786 21.31074238 C97.28116443 22.8150711 94.27896813 24.32081429 91.27709627 25.82722068 C88.09148209 27.42512532 84.90449449 29.02028601 81.71762085 30.61567688 C73.68553031 34.63719069 65.65518808 38.66218905 57.625 42.6875 C48.87302755 47.07454521 40.12072279 51.46092168 31.36649358 55.84346229 C27.58666443 57.73586559 23.80781754 59.63021198 20.02971768 61.52606523 C17.15291585 62.9690479 14.27484116 64.40948794 11.39697266 65.8503418 C9.82953812 66.63793381 9.82953812 66.63793381 8.23043823 67.44143677 C6.81417145 68.14962303 6.81417145 68.14962303 5.36929321 68.87211609 C4.13234931 69.4922535 4.13234931 69.4922535 2.87041664 70.12491894 C1 71 1 71 0 71 C0 47.57 0 24.14 0 0 Z " fill="#03236A" transform="translate(0,213)"/>
<path d="M0 0 C0 23.43 0 46.86 0 71 C-46.53 71 -93.06 71 -141 71 C-139.68904385 68.3780877 -138.48481083 68.10758412 -135.84091187 66.88224792 C-134.9493873 66.46375989 -134.05786274 66.04527185 -133.13932228 65.61410236 C-132.15668089 65.15903403 -131.1740395 64.7039657 -130.16162109 64.23510742 C-121.30699491 60.06755255 -112.50710091 55.80860524 -103.75634766 51.42700195 C-102.61049887 50.85354632 -101.46465008 50.28009069 -100.2840786 49.68925762 C-97.28116443 48.1849289 -94.27896813 46.67918571 -91.27709627 45.17277932 C-88.09148209 43.57487468 -84.90449449 41.97971399 -81.71762085 40.38432312 C-73.68553031 36.36280931 -65.65518808 32.33781095 -57.625 28.3125 C-48.87302755 23.92545479 -40.12072279 19.53907832 -31.36649358 15.15653771 C-27.58666443 13.26413441 -23.80781754 11.36978802 -20.02971768 9.47393477 C-17.15291585 8.0309521 -14.27484116 6.59051206 -11.39697266 5.1496582 C-10.3520163 4.62459686 -9.30705994 4.09953552 -8.23043823 3.55856323 C-7.28626038 3.08643906 -6.34208252 2.61431488 -5.36929321 2.12788391 C-4.54466394 1.71445897 -3.72003468 1.30103403 -2.87041664 0.87508106 C-1 0 -1 0 0 0 Z " fill="#03236A" transform="translate(640,36)"/>
<path d="M0 0 C46.43964226 -9.86448224 84.92302214 15.56349702 124.44340289 36.46479189 C133.96081073 41.49302749 143.53724634 46.4038444 153.11855686 51.30889881 C167.98098565 58.92094347 182.81150995 66.59200609 197.59350586 74.35913086 C198.33393253 74.74750122 199.07435921 75.13587158 199.83722305 75.53601074 C201.88486224 76.61072938 203.93106272 77.68812698 205.97666931 78.76670837 C207.12279662 79.37048278 208.26892393 79.97425718 209.44978237 80.59632778 C212 82 212 82 213 83 C213.08726223 84.78071246 213.10699041 86.5648314 213.09765625 88.34765625 C213.09443359 89.42724609 213.09121094 90.50683594 213.08789062 91.61914062 C213.07951172 92.75544922 213.07113281 93.89175781 213.0625 95.0625 C213.05798828 96.20267578 213.05347656 97.34285156 213.04882812 98.51757812 C213.03699746 101.34510604 213.01967618 104.17251896 213 107 C199.92075037 100.86694906 186.94937939 94.54508851 174.03442383 88.07397461 C172.12040165 87.11682203 170.20629066 86.15984703 168.292099 85.20303345 C163.16025984 82.63725571 158.02964653 80.06903588 152.89927125 77.50033259 C147.51354518 74.80431658 142.12666522 72.11060807 136.73991394 69.41664124 C126.56827518 64.32927578 116.39765665 59.23987425 106.22741479 54.14971691 C94.63670016 48.34874595 83.04483216 42.55008152 71.45287287 36.75159824 C47.63397599 24.83694159 23.81650896 12.91942911 0 1 C0 0.67 0 0.34 0 0 Z " fill="#C81431" transform="translate(427,213)"/>
<path d="M0 0 C13.07924963 6.13305094 26.05062061 12.45491149 38.96557617 18.92602539 C40.87959835 19.88317797 42.79370934 20.84015297 44.707901 21.79696655 C49.83974016 24.36274429 54.97035347 26.93096412 60.10072875 29.49966741 C65.48645482 32.19568342 70.87333478 34.88939193 76.26008606 37.58335876 C86.43172482 42.67072422 96.60234335 47.76012575 106.77258521 52.85028309 C118.36329984 58.65125405 129.95516784 64.44991848 141.54712713 70.24840176 C165.36602401 82.16305841 189.18349104 94.08057089 213 106 C213 106.33 213 106.66 213 107 C166.56035774 116.86448224 128.07697786 91.43650298 88.55659711 70.53520811 C79.03918927 65.50697251 69.46275366 60.5961556 59.88144314 55.69110119 C45.01901435 48.07905653 30.18849005 40.40799391 15.40649414 32.64086914 C14.66606747 32.25249878 13.92564079 31.86412842 13.16277695 31.46398926 C11.11513776 30.38927062 9.06893728 29.31187302 7.02333069 28.23329163 C5.87720338 27.62951722 4.73107607 27.02574282 3.55021763 26.40367222 C1 25 1 25 0 24 C-0.08726223 22.21928754 -0.10699041 20.4351686 -0.09765625 18.65234375 C-0.09443359 17.57275391 -0.09121094 16.49316406 -0.08789062 15.38085938 C-0.07951172 14.24455078 -0.07113281 13.10824219 -0.0625 11.9375 C-0.05798828 10.79732422 -0.05347656 9.65714844 -0.04882812 8.48242188 C-0.03699746 5.65489396 -0.01967618 2.82748104 0 0 Z " fill="#C81431" transform="translate(0,0)"/>
</svg>
